<?xml version="1.0" standalone="no"?>
<!DOCTYPE svg PUBLIC "-//W3C//DTD SVG 20010904//EN"
 "http://www.w3.org/TR/2001/REC-SVG-20010904/DTD/svg10.dtd">
<svg version="1.0" xmlns="http://www.w3.org/2000/svg"
 width="500.000000pt" height="500.000000pt" viewBox="0 0 500.000000 500.000000"
 preserveAspectRatio="xMidYMid meet">

<g transform="translate(0.000000,500.000000) scale(0.100000,-0.100000)"
fill="#000000" stroke="none">
<path d="M2315 4979 c-206 -13 -477 -70 -680 -144 -335 -121 -735 -389 -953
-640 -29 -33 -66 -76 -83 -95 -68 -76 -173 -225 -246 -347 -189 -316 -284
-599 -333 -991 -24 -194 -25 -306 -5 -506 25 -243 79 -477 162 -701 126 -338
420 -748 710 -990 301 -251 607 -411 973 -509 221 -59 210 -58 696 -54 l449 4
85 26 c47 15 117 35 155 47 196 56 462 183 658 314 372 248 651 564 852 966
95 191 137 310 202 571 l38 155 3 350 c3 324 2 357 -17 440 -11 50 -25 115
-30 145 -62 358 -240 726 -512 1060 -175 216 -307 335 -549 498 -359 240 -769
377 -1214 403 -169 9 -190 9 -361 -2z m538 -164 c213 -32 462 -107 657 -197
402 -185 777 -520 1012 -903 247 -401 360 -833 345 -1315 -18 -606 -249 -1144
-678 -1581 -443 -452 -1038 -701 -1674 -701 -730 -1 -1388 315 -1850 887 -104
129 -172 234 -253 392 -192 376 -274 748 -259 1173 8 206 27 334 78 523 80
297 207 556 394 805 90 120 314 351 420 434 273 213 565 354 905 438 138 34
208 45 395 64 80 8 412 -4 508 -19z"/>
<path d="M2245 4455 c-373 -53 -696 -193 -995 -431 -151 -121 -351 -351 -454
-522 -35 -58 -116 -217 -116 -227 0 -3 12 -5 28 -5 24 1 31 10 67 83 139 285
401 575 686 760 223 145 505 250 784 292 129 19 391 19 537 0 121 -16 325 -68
436 -111 447 -174 830 -522 1046 -952 33 -66 39 -72 67 -72 l31 0 -57 108
c-142 270 -313 476 -550 668 -235 190 -570 341 -875 396 -150 27 -487 34 -635
13z"/>
<path d="M2370 4283 c-614 -50 -1163 -415 -1454 -964 -31 -58 -56 -109 -56
-112 0 -4 11 -7 23 -7 20 0 31 13 61 74 20 41 67 121 105 178 244 368 620 634
1041 736 188 46 286 56 477 49 477 -16 897 -202 1218 -539 130 -136 257 -317
319 -456 15 -32 25 -42 43 -42 12 0 23 5 23 11 0 17 -84 171 -145 264 -70 108
-140 193 -246 297 -377 368 -888 553 -1409 511z"/>
<path d="M2463 4193 c15 -2 37 -2 50 0 12 2 0 4 -28 4 -27 0 -38 -2 -22 -4z"/>
<path d="M1878 3652 c130 -129 202 -258 221 -398 25 -170 -45 -339 -208 -508
l-66 -68 60 6 c236 26 434 101 555 212 48 44 83 62 74 40 -8 -20 169 -146 206
-146 10 0 20 -3 22 -8 5 -11 130 -52 160 -52 15 0 30 -5 33 -11 4 -6 14 -8 22
-5 9 4 21 2 27 -3 11 -8 126 -31 160 -31 16 0 16 1 2 16 -9 8 -21 12 -27 8 -7
-4 -9 -3 -6 3 3 5 -21 37 -53 71 -33 34 -60 65 -60 69 -1 4 -14 24 -30 43 -17
19 -30 42 -30 51 0 9 -6 22 -14 28 -8 7 -17 23 -20 36 -4 14 -13 25 -22 25 -8
0 -12 5 -8 11 3 6 7 77 8 158 1 126 4 152 23 191 43 92 100 173 178 251 l80
81 -85 -5 c-97 -6 -210 -27 -210 -40 0 -4 -4 -6 -9 -3 -22 14 -251 -102 -251
-126 0 -5 -6 -8 -13 -8 -8 0 -35 -23 -60 -51 l-46 -51 -78 71 c-133 122 -292
184 -531 206 l-73 7 69 -70z m1219 42 c-3 -3 -12 -4 -19 -1 -8 3 -5 6 6 6 11
1 17 -2 13 -5z m-50 -14 c12 0 12 -2 -1 -16 -14 -13 -18 -13 -36 -1 -21 15
-15 31 8 22 7 -3 20 -5 29 -5z m-79 -21 c-30 -17 -21 -31 17 -27 19 2 35 0 35
-5 0 -4 4 -5 10 -2 6 3 7 -1 3 -10 -4 -11 -8 -13 -13 -6 -8 13 -45 -24 -54
-54 -6 -22 -46 -29 -58 -11 -4 6 -10 3 -14 -9 -5 -13 -1 -23 14 -33 20 -13 20
-15 5 -38 -8 -13 -23 -24 -32 -23 -10 0 -11 2 -3 6 18 7 15 31 -7 43 -11 5
-23 19 -26 30 -6 20 -45 29 -45 10 0 -21 -53 -57 -77 -52 -32 6 -29 25 7 40
37 17 38 30 4 34 -15 2 -34 14 -43 28 -9 13 -11 21 -4 17 16 -10 93 10 99 26
2 7 23 12 48 12 36 0 48 -5 65 -27 12 -14 21 -32 21 -39 0 -10 4 -9 16 3 18
17 12 38 -11 38 -9 0 -12 8 -9 25 4 26 -10 35 -19 13 -3 -8 -6 -6 -6 5 -1 14
8 17 47 17 37 -1 43 -3 30 -11z m-249 -127 c-5 -2 -17 2 -26 10 -13 10 -17 10
-20 1 -3 -7 -14 -13 -25 -13 -16 0 -18 -3 -10 -13 6 -7 7 -18 3 -26 -7 -10
-11 -8 -16 9 -6 18 -1 27 21 45 26 21 29 21 56 6 15 -9 23 -18 17 -19z m231
-29 c0 -10 -4 -14 -8 -8 -4 6 -11 13 -16 18 -5 4 -2 7 7 7 10 0 17 -8 17 -17z
m-335 -3 c3 -5 3 -15 -1 -21 -6 -11 -23 6 -24 24 0 10 18 9 25 -3z m-35 -14
c0 -2 -7 -9 -15 -16 -13 -11 -14 -10 -9 4 5 14 24 23 24 12z m256 -11 c-1 -9
-10 -25 -20 -37 -12 -13 -14 -23 -8 -27 7 -4 8 -12 2 -21 -6 -8 -10 -26 -10
-40 -1 -24 -1 -24 -15 -6 -19 25 -19 51 -1 84 8 15 17 35 20 45 7 21 35 23 32
2z m-103 -43 c26 -23 22 -91 -8 -136 -14 -20 -25 -41 -25 -47 0 -5 -7 -12 -15
-15 -8 -4 -15 -12 -15 -19 0 -7 -18 -27 -41 -46 -23 -19 -60 -51 -83 -71 -22
-21 -47 -38 -55 -38 -19 0 -214 198 -235 238 -27 51 -25 110 3 133 29 24 115
26 187 5 44 -14 54 -13 101 3 61 21 158 17 186 -7z m127 -40 c0 -29 3 -34 11
-22 9 12 9 11 4 -5 -4 -11 -10 -30 -12 -41 -4 -15 -10 -20 -24 -17 -23 6 -25
38 -3 47 12 5 15 16 12 45 -2 22 0 37 4 35 5 -3 8 -22 8 -42z m40 34 c0 -3 -4
-8 -10 -11 -5 -3 -10 -1 -10 4 0 6 5 11 10 11 6 0 10 -2 10 -4z m-117 -142 c3
-30 10 -61 15 -67 5 -7 9 -41 11 -77 2 -75 8 -100 24 -100 8 0 8 3 -1 12 -14
14 -16 28 -3 28 15 0 24 -52 10 -60 -6 -4 -8 -13 -5 -19 5 -7 -3 -11 -20 -11
-26 0 -27 1 -21 45 4 27 3 45 -3 45 -6 0 -10 -14 -10 -32 0 -60 -12 -19 -16
52 -2 51 1 73 10 76 17 6 16 34 0 34 -7 0 -17 -8 -23 -17 -7 -14 -12 -15 -24
-4 -13 10 -17 9 -26 -6 -9 -16 -11 -14 -11 15 0 4 5 7 10 7 6 0 15 6 19 14 5
7 13 11 19 7 6 -4 13 17 17 54 4 33 10 60 15 60 4 0 10 -25 13 -56z m67 -9 c0
-8 -2 -15 -4 -15 -2 0 -6 7 -10 15 -3 8 -1 15 4 15 6 0 10 -7 10 -15z m10 -95
c0 -5 -2 -10 -4 -10 -3 0 -8 5 -11 10 -3 6 -1 10 4 10 6 0 11 -4 11 -10z
m-138 -39 c-6 -17 -9 -31 -6 -31 3 0 -1 -6 -8 -13 -13 -13 -65 -32 -80 -29 -4
1 -15 -9 -25 -22 -24 -30 -63 -44 -63 -22 0 9 -5 16 -11 16 -5 0 -7 5 -3 11 4
8 9 7 14 -2 6 -9 16 -6 40 14 17 15 36 27 41 27 12 0 12 27 -1 32 -6 2 -6 8 0
18 8 13 10 12 10 -2 0 -19 16 -25 22 -9 4 11 71 52 76 46 2 -2 0 -18 -6 -34z
m128 -1 c0 -5 -2 -10 -4 -10 -3 0 -8 5 -11 10 -3 6 -1 10 4 10 6 0 11 -4 11
-10z m-339 -129 c12 -11 19 -26 17 -34 -2 -10 -12 -5 -35 19 -35 37 -19 50 18
15z m229 -6 c0 -20 -5 -25 -24 -25 -31 0 -56 28 -35 41 8 5 24 9 37 9 17 0 22
-6 22 -25z m150 -10 c0 -8 5 -24 12 -35 15 -24 4 -37 -17 -20 -17 14 -21 70
-5 70 6 0 10 -7 10 -15z m-294 -10 c-7 -19 8 -19 24 0 9 11 17 12 31 4 24 -13
26 -51 2 -48 -35 3 -44 -1 -53 -27 l-10 -25 -30 21 c-32 23 -32 25 3 64 24 28
42 34 33 11z m244 -40 c0 -8 -4 -15 -10 -15 -5 0 -10 7 -10 15 0 8 5 15 10 15
6 0 10 -7 10 -15z m-100 -30 c0 -9 -8 -18 -17 -22 -10 -3 -25 -14 -33 -24 -10
-12 -23 -16 -42 -12 -23 4 -25 7 -15 24 6 10 19 19 27 19 8 0 24 7 34 15 26
19 46 19 46 0z m156 5 c9 0 12 -4 9 -10 -10 -17 -55 -12 -55 6 0 11 5 14 16
10 9 -3 22 -6 30 -6z m40 -27 c0 -10 4 -18 11 -18 6 0 13 -2 15 -5 2 -3 1 -4
-1 -3 -2 2 -9 -5 -16 -14 -7 -9 -17 -13 -23 -9 -19 11 -14 29 6 22 15 -5 15
-5 1 6 -9 7 -14 19 -12 26 7 18 21 15 19 -5z m40 -54 c3 -6 1 -16 -5 -22 -9
-9 -10 -7 -5 8 7 19 7 19 -13 3 -27 -24 -40 -23 -18 2 20 23 31 25 41 9z
m-236 -14 c0 -8 -4 -15 -9 -15 -5 0 -11 7 -15 15 -3 9 0 15 9 15 8 0 15 -7 15
-15z m125 -19 c8 -7 11 -16 8 -20 -4 -3 7 -7 23 -8 20 -1 16 -3 -16 -7 -54 -8
-77 -4 -84 15 -4 10 2 14 19 14 14 0 25 5 25 10 0 14 9 12 25 -4z m108 -23
c-3 -13 3 -15 45 -16 12 0 22 -6 22 -13 0 -8 7 -14 15 -14 8 0 15 -4 15 -10 0
-5 -7 -6 -17 -3 -11 4 -14 3 -9 -5 4 -7 2 -12 -3 -12 -6 0 -11 8 -11 17 0 9
-3 14 -6 10 -9 -9 -67 14 -98 40 l-29 24 39 -3 c25 -2 38 -8 37 -15z m-53 -33
c0 -5 -2 -10 -4 -10 -3 0 -8 5 -11 10 -3 6 -1 10 4 10 6 0 11 -4 11 -10z"/>
<path d="M2795 3590 c-3 -6 6 -15 20 -20 45 -17 68 -11 58 16 -6 16 -69 19
-78 4z"/>
<path d="M400 2560 c-18 -18 -20 -31 -18 -98 l3 -76 52 -16 c66 -20 75 -29 71
-71 -3 -30 -6 -34 -33 -34 -25 0 -30 4 -33 28 -3 23 -8 27 -33 27 -27 0 -29
-2 -29 -40 0 -62 27 -83 101 -78 33 2 65 10 72 17 6 6 13 46 15 90 l4 78 -66
24 -67 23 3 41 c3 37 5 40 33 40 25 0 30 -4 33 -27 3 -24 8 -28 33 -28 27 0
29 2 29 40 0 58 -26 80 -95 80 -42 0 -60 -5 -75 -20z"/>
<path d="M2190 2390 l0 -190 30 0 30 0 0 107 c0 58 3 103 8 99 4 -4 16 -51 27
-104 17 -84 23 -97 40 -97 21 0 22 4 57 160 l13 60 3 -112 3 -113 29 0 30 0 0
190 0 190 -39 0 -38 0 -23 -107 c-32 -155 -34 -155 -65 -8 -25 121 -21 115
-66 115 l-39 0 0 -190z"/>
<path d="M3982 2393 l3 -188 25 0 c24 0 25 2 28 77 3 81 10 92 50 77 20 -8 22
-15 22 -84 l0 -76 28 3 27 3 3 188 2 187 -30 0 -30 0 0 -67 c0 -79 -8 -96 -41
-91 -23 3 -24 7 -27 81 l-3 77 -30 0 -29 0 2 -187z"/>
<path d="M867 2534 c-4 -4 -7 -81 -7 -171 l0 -163 30 0 c29 0 30 2 30 44 0 47
7 76 19 76 4 0 20 -27 36 -60 27 -56 31 -60 62 -60 18 0 33 2 33 4 0 2 -20 42
-46 89 l-45 86 20 38 c11 21 29 52 40 68 27 39 26 55 -2 55 -27 0 -42 -15 -83
-85 l-29 -50 -5 65 c-4 56 -8 65 -25 68 -12 2 -24 0 -28 -4z"/>
<path d="M1130 2520 c-18 -18 -20 -33 -20 -150 0 -119 2 -132 21 -151 18 -18
30 -21 80 -17 33 2 65 10 72 17 8 8 13 56 15 141 4 127 3 130 -22 155 -33 33
-115 36 -146 5z m108 -152 l3 -108 -36 0 -35 0 0 103 c0 57 3 107 7 111 4 4
19 6 33 4 25 -3 25 -4 28 -110z"/>
<path d="M1357 2533 c-4 -3 -7 -80 -7 -170 l0 -163 80 0 80 0 0 30 c0 29 -1
30 -50 30 l-50 0 0 140 c0 140 0 140 -23 140 -13 0 -27 -3 -30 -7z"/>
<path d="M1625 2528 c-13 -38 -75 -292 -75 -309 0 -14 7 -19 25 -19 19 0 26 7
33 33 8 30 12 32 55 35 45 3 46 2 55 -30 6 -26 14 -34 35 -36 15 -2 27 1 27 6
0 25 -73 308 -82 319 -14 17 -67 17 -73 1z m61 -162 c6 -44 6 -46 -18 -46 -14
0 -27 2 -30 5 -5 6 6 72 18 105 8 23 23 -8 30 -64z"/>
<path d="M1833 2523 c-5 -10 -8 -85 -8 -168 l0 -150 33 -3 32 -3 0 70 0 71 30
0 c30 0 30 0 30 -57 0 -69 9 -86 41 -81 24 3 24 5 27 137 5 169 -1 201 -33
201 -23 0 -40 -27 -34 -56 1 -5 1 -26 0 -46 -1 -35 -3 -38 -31 -38 -29 0 -29
0 -32 68 -3 60 -5 67 -25 70 -13 2 -25 -4 -30 -15z"/>
<path d="M2517 2534 c-4 -4 -7 -72 -7 -151 0 -172 6 -183 93 -183 90 0 92 4
92 182 l0 153 -25 0 -25 0 -5 -135 -5 -135 -30 0 -30 0 -5 135 c-5 126 -6 135
-25 138 -12 2 -24 0 -28 -4z"/>
<path d="M2744 2526 c-11 -29 1 -51 29 -54 l27 -3 0 -135 0 -134 30 0 c34 0
32 -11 30 152 l-1 117 33 3 c29 3 33 6 33 33 l0 30 -88 3 c-70 2 -88 0 -93
-12z"/>
<path d="M2972 2532 c-9 -6 -12 -47 -10 -168 l3 -159 33 -3 32 -3 -2 168 c-3
159 -4 168 -23 171 -11 1 -26 -2 -33 -6z"/>
<path d="M3152 2523 c-5 -10 -24 -79 -41 -153 -18 -74 -34 -143 -37 -153 -5
-15 -1 -18 22 -15 22 2 30 10 36 36 9 32 10 33 56 30 43 -3 48 -5 57 -35 7
-27 14 -33 38 -33 22 0 27 4 23 18 -3 9 -18 73 -35 142 -41 172 -44 180 -80
180 -19 0 -34 -7 -39 -17z m52 -120 c3 -21 9 -48 12 -60 6 -20 3 -23 -25 -23
-17 0 -31 4 -31 9 0 23 24 111 30 111 4 0 10 -17 14 -37z"/>
<path d="M3350 2371 l0 -171 30 0 c29 0 30 1 30 50 0 46 2 50 24 50 21 0 26
-7 36 -50 11 -46 15 -50 41 -50 27 0 28 2 21 33 -4 17 -6 46 -4 62 20 238 20
238 -97 243 l-81 4 0 -171z m125 49 c0 -55 0 -55 -32 -58 l-33 -3 0 61 0 61
33 -3 c32 -3 32 -3 32 -58z"/>
<path d="M3649 2513 c-6 -16 -24 -84 -40 -153 -16 -69 -32 -133 -35 -142 -4
-14 1 -18 23 -18 24 0 31 6 38 33 9 30 14 32 57 35 46 3 47 2 56 -30 6 -26 14
-34 36 -36 23 -3 27 0 23 15 -3 10 -20 79 -38 153 -38 164 -41 170 -80 170
-23 0 -32 -6 -40 -27z m56 -110 c3 -21 9 -48 12 -60 5 -20 1 -23 -27 -23 -29
0 -32 3 -26 23 3 12 9 39 12 60 4 20 10 37 14 37 4 0 11 -17 15 -37z"/>
<path d="M4293 2528 c-6 -7 -24 -74 -42 -148 -17 -74 -34 -145 -38 -158 -5
-21 -3 -23 23 -20 22 2 30 10 36 36 9 32 10 33 56 30 43 -3 47 -5 56 -35 7
-25 14 -33 32 -33 18 0 24 6 24 21 0 22 -67 296 -76 310 -8 14 -60 11 -71 -3z
m52 -134 c3 -26 9 -53 12 -60 4 -10 -4 -14 -26 -14 -17 0 -31 4 -31 9 0 23 24
111 31 111 4 0 10 -21 14 -46z"/>
<path d="M4454 2526 c-11 -29 1 -51 29 -54 l27 -3 0 -135 0 -134 30 0 30 0 0
135 0 135 30 0 c23 0 31 5 36 24 10 40 -2 46 -92 46 -64 0 -86 -3 -90 -14z"/>
<path d="M4677 2533 c-4 -3 -7 -80 -7 -170 l0 -164 33 3 32 3 3 154 c2 104 -1
158 -9 167 -12 15 -41 19 -52 7z"/>
<path d="M620 2365 l0 -165 96 0 95 0 -3 28 c-3 26 -6 27 -66 30 l-63 3 3 37
c3 37 4 37 51 40 42 3 47 6 47 26 0 27 -17 36 -66 36 -32 0 -34 2 -34 35 l0
34 63 3 c59 3 62 4 65 31 l3 27 -95 0 -96 0 0 -165z"/>
<path d="M805 2105 c-34 -16 -65 -39 -65 -48 0 -4 16 5 36 18 20 13 52 27 73
31 54 9 60 12 21 13 -19 0 -48 -6 -65 -14z"/>
<path d="M1668 2113 c7 -3 16 -2 19 1 4 3 -2 6 -13 5 -11 0 -14 -3 -6 -6z"/>
<path d="M1923 2078 c-47 -71 -75 -148 -53 -148 9 0 14 14 11 32 -2 15 41 99
65 128 14 16 21 30 15 30 -5 0 -23 -19 -38 -42z"/>
<path d="M2326 2093 c-40 -55 -73 -129 -65 -149 7 -18 8 -18 8 1 2 28 48 126
73 153 12 12 17 22 12 22 -5 0 -18 -13 -28 -27z"/>
<path d="M2574 2113 c-25 -5 -95 -62 -76 -63 6 0 12 3 12 8 0 11 60 41 105 51
34 8 36 9 10 9 -16 -1 -39 -3 -51 -5z"/>
<path d="M3887 2103 c-30 -35 -75 -133 -63 -140 6 -3 8 -3 4 1 -4 5 2 17 13
29 10 11 19 29 19 39 0 9 14 33 31 53 17 19 27 35 22 35 -6 0 -17 -8 -26 -17z"/>
<path d="M1611 2072 c-1 -18 8 -26 37 -38 20 -8 45 -19 56 -25 13 -8 16 -7 11
1 -4 7 -27 21 -51 31 -23 11 -45 27 -47 37 -3 12 -5 11 -6 -6z"/>
<path d="M846 2073 c-10 -11 -47 -95 -43 -100 2 -2 12 15 22 38 10 22 28 47
39 55 16 11 17 14 5 14 -9 0 -19 -3 -23 -7z"/>
<path d="M2596 2064 c-10 -25 -1 -27 19 -4 15 17 16 20 3 20 -9 0 -19 -7 -22
-16z"/>
<path d="M3360 2067 c0 -10 11 -21 28 -27 15 -5 39 -16 55 -24 15 -8 27 -11
27 -5 0 5 -21 19 -47 30 -26 11 -51 26 -55 32 -5 8 -8 6 -8 -6z"/>
<path d="M1113 2014 c-35 -58 -41 -84 -21 -84 6 0 8 3 5 6 -4 4 10 35 29 70
44 78 32 85 -13 8z"/>
<path d="M1201 2025 c-12 -24 -26 -47 -32 -50 -12 -8 -12 -45 1 -45 6 0 10 7
10 16 0 9 14 41 31 70 17 30 26 54 22 54 -5 0 -20 -20 -32 -45z"/>
<path d="M2700 2060 c-9 -6 -10 -10 -3 -10 6 0 15 5 18 10 8 12 4 12 -15 0z"/>
<path d="M2892 2058 c-23 -29 -52 -90 -52 -110 0 -12 14 7 35 47 33 65 40 91
17 63z"/>
<path d="M2947 2018 c-15 -29 -27 -62 -27 -73 0 -11 14 9 32 45 18 36 34 68
36 73 2 4 0 7 -5 7 -5 0 -21 -24 -36 -52z"/>
<path d="M3542 2043 c-32 -47 -48 -101 -33 -115 10 -11 11 -10 6 4 -4 10 6 40
25 74 33 61 35 83 2 37z"/>
<path d="M4151 2048 c-6 -13 -20 -36 -30 -53 -22 -33 -27 -65 -10 -65 5 0 8 4
5 8 -5 8 2 24 42 95 12 20 18 37 13 37 -4 0 -13 -10 -20 -22z"/>
<path d="M1396 2041 c-4 -7 -5 -15 -2 -18 9 -9 19 4 14 18 -4 11 -6 11 -12 0z"/>
<path d="M3153 2043 c-15 -5 -17 -23 -4 -23 5 0 11 7 15 15 3 8 4 15 3 14 -1
0 -8 -3 -14 -6z"/>
<path d="M4215 2020 c-26 -28 -15 -31 12 -3 12 13 19 23 14 23 -4 0 -16 -9
-26 -20z"/>
<path d="M870 2022 c0 -5 10 -17 21 -28 12 -10 25 -28 28 -38 7 -17 8 -17 14
-3 4 10 -4 28 -19 47 -25 29 -44 39 -44 22z"/>
<path d="M2642 2003 c14 -16 30 -37 36 -48 11 -19 11 -19 12 3 0 13 -12 34
-26 47 -37 34 -54 32 -22 -2z"/>
<path d="M1427 2013 c-4 -3 -7 -11 -7 -17 0 -6 5 -5 12 2 6 6 9 14 7 17 -3 3
-9 2 -12 -2z"/>
<path d="M1949 2019 c0 -2 -2 -11 -4 -19 -2 -8 -6 -31 -9 -50 -5 -26 -2 -23 9
14 9 26 14 51 11 54 -3 3 -6 3 -7 1z"/>
<path d="M2032 1997 c-12 -13 -22 -32 -21 -43 0 -14 2 -15 6 -4 3 8 15 27 25
43 24 33 19 35 -10 4z"/>
<path d="M3180 2010 c0 -6 -10 -24 -22 -40 -17 -23 -19 -33 -10 -42 9 -9 12
-8 12 6 0 10 9 34 21 52 11 19 16 34 10 34 -6 0 -11 -5 -11 -10z"/>
<path d="M3668 1995 c-15 -29 -16 -60 -4 -73 3 -3 6 5 6 17 0 12 5 31 11 42 6
11 8 25 6 32 -2 7 -11 -1 -19 -18z"/>
<path d="M4047 2013 c-3 -4 -8 -26 -11 -48 l-7 -40 16 43 c15 39 16 67 2 45z"/>
<path d="M992 1987 c-12 -13 -22 -32 -21 -43 0 -14 2 -15 6 -4 3 8 15 27 25
43 24 33 19 35 -10 4z"/>
<path d="M1266 1989 c-14 -11 -26 -30 -26 -42 1 -22 1 -22 12 -2 6 11 20 30
31 43 26 28 18 28 -17 1z"/>
<path d="M1768 1989 c-16 -12 -28 -30 -28 -42 1 -22 1 -22 12 -2 6 11 20 30
31 43 25 27 20 28 -15 1z"/>
<path d="M2146 1988 c-9 -12 -16 -32 -15 -43 0 -17 2 -17 10 5 6 13 17 33 26
42 9 10 11 18 5 18 -6 0 -18 -10 -26 -22z"/>
<path d="M2744 1987 c-14 -13 -25 -30 -23 -39 3 -11 12 -4 31 23 32 45 30 48
-8 16z"/>
<path d="M3017 1985 c-29 -27 -33 -40 -17 -50 6 -3 10 0 10 8 0 8 9 26 21 41
26 33 21 33 -14 1z"/>
<path d="M3596 1991 c-10 -11 -16 -26 -14 -34 2 -9 10 -2 20 19 20 39 18 42
-6 15z"/>
<path d="M3876 1989 c-14 -11 -26 -30 -26 -42 1 -22 1 -22 12 -2 6 11 20 30
31 43 26 28 18 28 -17 1z"/>
<path d="M3971 1974 c-7 -19 -10 -38 -6 -42 8 -8 25 19 19 30 -3 4 0 17 6 28
6 11 7 20 2 20 -4 0 -14 -16 -21 -36z"/>
<path d="M2211 1984 c0 -11 3 -14 6 -6 3 7 2 16 -1 19 -3 4 -6 -2 -5 -13z"/>
<path d="M3736 1974 c-9 -8 -16 -20 -16 -26 0 -6 1 -9 3 -7 1 2 11 14 21 27
22 25 16 30 -8 6z"/>
<path d="M1400 1965 c-6 -8 -10 -21 -8 -31 2 -11 7 -6 15 15 13 34 11 38 -7
16z"/>
<path d="M1544 1966 c-12 -32 0 -51 36 -53 l35 -2 -34 10 c-28 9 -32 14 -28
35 5 26 0 32 -9 10z"/>
<path d="M3291 1949 c-1 -29 15 -40 57 -38 25 1 25 1 -6 10 -19 6 -37 19 -42
32 -8 21 -9 21 -9 -4z"/>
<path d="M4236 1945 c-3 -8 -1 -15 4 -15 6 0 10 7 10 15 0 8 -2 15 -4 15 -2 0
-6 -7 -10 -15z"/>
<path d="M3808 1925 c-3 -14 -1 -28 3 -31 5 -3 9 9 9 25 0 38 -6 40 -12 6z"/>
<path d="M810 1931 c0 -6 4 -13 10 -16 6 -3 7 1 4 9 -7 18 -14 21 -14 7z"/>
<path d="M2531 1924 c0 -11 3 -14 6 -6 3 7 2 16 -1 19 -3 4 -6 -2 -5 -13z"/>
<path d="M885 1703 c120 -270 377 -561 655 -741 101 -66 294 -160 402 -196
186 -63 469 -103 653 -92 322 19 607 109 882 277 206 127 431 351 570 569 41
64 123 220 123 233 0 4 -11 7 -25 7 -19 0 -28 -9 -45 -47 -83 -187 -284 -444
-457 -584 -481 -386 -1072 -504 -1646 -328 -429 132 -782 418 -1018 825 -28
49 -55 99 -60 112 -6 15 -17 22 -34 22 l-25 0 25 -57z"/>
<path d="M1137 1723 c-14 -13 -6 -37 28 -85 l36 -49 -36 -48 c-19 -27 -35 -58
-35 -70 l0 -21 1369 0 c1174 0 1370 2 1374 14 3 8 -12 40 -34 70 l-40 56 36
50 c20 27 35 58 33 67 -3 17 -73 18 -1364 21 -748 1 -1364 -1 -1367 -5z m283
-83 c0 -5 -4 -10 -10 -10 -5 0 -10 -25 -12 -55 -2 -30 -7 -55 -13 -55 -5 0
-11 25 -13 55 -2 40 -7 55 -17 55 -8 0 -15 5 -15 10 0 6 18 10 40 10 22 0 40
-4 40 -10z m170 -60 c0 -67 -1 -70 -24 -70 -14 0 -31 7 -39 15 -21 20 -8 77
21 90 12 5 22 15 22 22 0 7 5 13 10 13 6 0 10 -30 10 -70z m95 9 c1 -69 -2
-79 -29 -79 -36 0 -48 14 -44 56 2 29 9 42 26 49 12 5 22 16 22 23 0 8 5 12
12 10 7 -3 13 -26 13 -59z m35 -9 c0 -40 -4 -70 -10 -70 -6 0 -10 30 -10 70 0
40 4 70 10 70 6 0 10 -30 10 -70z m405 60 c-3 -5 -2 -10 4 -10 5 0 13 5 16 10
3 6 13 10 20 10 12 0 11 -7 -5 -32 -19 -31 -19 -32 1 -59 10 -15 19 -32 19
-38 0 -18 -18 -13 -33 9 l-14 21 -6 -21 c-3 -11 -10 -20 -16 -20 -7 0 -11 26
-11 70 0 57 3 70 16 70 8 0 12 -4 9 -10z m149 -2 c26 -82 10 -128 -45 -128
l-29 0 0 70 0 70 35 0 c20 0 37 -6 39 -12z m286 2 c0 -5 -4 -10 -10 -10 -5 0
-10 -17 -10 -37 0 -49 -10 -84 -21 -77 -5 3 -9 28 -9 55 0 35 -4 51 -15 55
-28 11 -15 24 25 24 22 0 40 -4 40 -10z m48 -2 c9 -9 12 -9 12 0 0 7 9 12 21
12 20 0 20 0 -2 -31 l-22 -31 22 -29 c25 -34 19 -59 -9 -34 -17 15 -19 15 -28
-1 -18 -31 -32 -4 -32 62 0 65 10 80 38 52z m272 2 c0 -5 -9 -10 -20 -10 -29
0 -25 -13 10 -33 47 -28 36 -87 -15 -87 -22 0 -45 17 -45 33 0 5 14 6 30 2 40
-9 40 14 0 37 -28 16 -39 46 -23 61 10 11 63 8 63 -3z m131 -17 c13 -33 5 -93
-13 -105 -7 -4 -25 -8 -40 -8 -28 0 -28 0 -28 70 l0 70 35 0 c29 0 37 -5 46
-27z m289 17 c0 -5 -9 -10 -20 -10 -26 0 -26 -17 0 -25 11 -4 28 -18 37 -31
14 -23 14 -26 -2 -44 -20 -22 -55 -26 -73 -8 -21 21 -13 30 18 23 24 -5 30 -3
30 9 0 9 -11 21 -25 26 -31 12 -41 35 -25 55 14 17 60 21 60 5z m85 -20 c4
-16 11 -30 16 -30 6 0 15 14 20 30 6 17 17 30 25 30 11 0 14 -16 14 -64 0 -63
-14 -94 -27 -61 -6 16 -7 16 -15 1 -7 -13 -13 -14 -23 -6 -9 8 -15 8 -20 0
-14 -23 -25 5 -25 66 0 49 3 64 14 64 8 0 17 -13 21 -30z m186 7 c15 -32 -4
-77 -32 -77 -12 0 -23 -8 -26 -20 -10 -39 -21 -19 -25 46 -1 36 -1 68 1 70 2
2 19 4 38 4 25 0 36 -6 44 -23z m-2083 -19 c17 -17 15 -73 -3 -88 -40 -33 -82
27 -51 74 18 28 35 33 54 14z m320 0 c7 -7 12 -22 12 -35 0 -17 -6 -23 -22
-24 -17 -1 -19 -2 -5 -6 29 -8 21 -35 -10 -31 -24 3 -28 8 -31 41 -5 55 26 85
56 55z m82 -3 c0 -8 -6 -15 -14 -15 -10 0 -16 -13 -18 -37 -2 -21 -7 -38 -13
-38 -11 0 -19 69 -11 91 7 19 56 18 56 -1z m128 -22 c2 -9 -7 -13 -27 -13 -21
0 -31 5 -31 16 0 19 51 16 58 -3z m400 0 c2 -9 -7 -13 -27 -13 -30 0 -46 11
-34 24 11 11 56 2 61 -11z m315 2 c1 -5 -13 -11 -30 -13 -31 -3 -42 6 -26 22
10 10 53 3 56 -9z m425 -2 c2 -9 -7 -13 -27 -13 -30 0 -46 11 -34 24 11 11 56
2 61 -11z"/>
<path d="M1546 1583 c-12 -12 -6 -43 9 -43 8 0 15 9 15 19 0 21 -13 34 -24 24z"/>
<path d="M1636 1583 c-12 -12 -6 -43 9 -43 8 0 15 9 15 19 0 21 -13 34 -24 24z"/>
<path d="M2226 1622 c-3 -6 -1 -14 5 -17 15 -10 25 3 12 16 -7 7 -13 7 -17 1z"/>
<path d="M2226 1555 c-4 -12 -1 -16 11 -13 18 3 21 20 5 26 -5 1 -12 -4 -16
-13z"/>
<path d="M2957 1623 c-4 -3 -7 -24 -7 -45 0 -32 3 -39 17 -36 20 4 27 29 19
64 -6 24 -17 30 -29 17z"/>
<path d="M3510 1606 c0 -31 14 -40 30 -21 15 18 6 45 -15 45 -9 0 -15 -9 -15
-24z"/>
<path d="M1457 1584 c-11 -11 -8 -44 3 -44 15 0 24 30 13 41 -5 5 -12 6 -16 3z"/>
<path d="M685 1660 c-8 -13 84 -190 153 -294 157 -234 373 -446 610 -599 47
-30 229 -125 277 -144 17 -7 50 -21 75 -31 82 -35 293 -91 400 -107 307 -46
627 -25 897 59 342 106 611 272 864 533 147 152 233 269 332 454 66 122 70
145 30 134 -16 -3 -29 -10 -31 -14 -13 -37 -94 -182 -140 -251 -243 -369 -602
-647 -1018 -788 -49 -17 -160 -46 -245 -64 -145 -30 -166 -32 -369 -32 -226
-1 -314 10 -525 66 -379 100 -749 346 -1007 669 -88 110 -127 170 -203 313
-41 76 -62 106 -75 106 -10 0 -22 -4 -25 -10z"/>
</g>
</svg>
